<svg xmlns="http://www.w3.org/2000/svg" width="18" height="14" viewBox="0 0 22 16" fill="none">
<path d="M21.6173 0.544872C21.4841 0.387985 21.3216 0.259255 21.1392 0.166142C20.9567 0.0730293 20.758 0.0173203 20.5542 0.00223039C20.3505 -0.0128595 20.1458 0.0129645 19.952 0.0782066C19.7581 0.143449 19.5789 0.246841 19.4245 0.382431L9.00376 9.48787L2.53926 4.24884C2.24515 3.97121 1.85615 3.82008 1.45421 3.82726C1.05227 3.83444 0.668777 3.99937 0.384519 4.28734C0.10026 4.5753 -0.062567 4.96378 -0.0696588 5.37096C-0.0767505 5.77814 0.0724469 6.17224 0.346501 6.47018L7.13164 15.057C7.36024 15.3454 7.6486 15.5794 7.97632 15.7425C8.30405 15.9056 8.66313 15.9937 9.0282 16.0007C9.39326 16.0077 9.75538 15.9334 10.089 15.783C10.4225 15.6325 10.7194 15.4098 10.9586 15.1303C11.0155 15.0674 21.5501 2.67712 21.6173 2.60377C21.8618 2.318 21.9964 1.95251 21.9964 1.57432C21.9964 1.19613 21.8618 0.830643 21.6173 0.544872Z" fill="#7B9B0E"/>
</svg>